# xmcd CD database file
#
# Track frame offsets:
#	150
#	33459
#	56215
#	87264
#	104693
#	120194
#	169079
#	192281
#	219210
#	243509
#
# Disc length: 3463 seconds
#
# Revision: 0
# Processed by: cddbd v1.5.2PL0 Copyright (c) Steve Scherf et al.
# Submitted via: CDex 1.70beta2
#
DISCID=850d850a
DTITLE=Bo Diddley - Original Blues Sessions CD3
DYEAR=2007
DGENRE=Blues
TTITLE0=Intro - Bo Diddley Vamp
TTITLE1=Dr Jeckyll
TTITLE2=Everleen
TTITLE3=You can't judge a book
TTITLE4=Road runner
TTITLE5=Hoochie Coochie man
TTITLE6=Mona
TTITLE7=Don't know where i've been
TTITLE8=Sad hours (with Little Walter and Muddy Waters
TTITLE9=Juke (with Little Walter and Muddy Waters
EXTD=YEAR: 2007
EXTT0=
EXTT1=
EXTT2=
EXTT3=
EXTT4=
EXTT5=
EXTT6=
EXTT7=
EXTT8=
EXTT9=
PLAYORDER=
